<mxfile host="app.diagrams.net" agent="Mozilla/5.0 (Windows NT 10.0; Win64; x64) AppleWebKit/537.36 (KHTML, like Gecko) Chrome/139.0.0.0 Safari/537.36" version="28.2.0">
  <diagram name="Page-1" id="B256UyzcbSEi1wImZY_y">
    <mxGraphModel dx="1737" dy="965" grid="1" gridSize="10" guides="1" tooltips="1" connect="1" arrows="1" fold="1" page="1" pageScale="1" pageWidth="850" pageHeight="1100" math="0" shadow="0">
      <root>
        <mxCell id="0" />
        <mxCell id="1" parent="0" />
        <mxCell id="KlxSWnceUSh5aOYCG6R3-1" value="Student Information System" style="rounded=0;whiteSpace=wrap;html=1;labelBackgroundColor=none;fillColor=#BC6C25;strokeColor=#DDA15E;fontColor=#FEFAE0;" vertex="1" parent="1">
          <mxGeometry x="200" y="40" width="910" height="90" as="geometry" />
        </mxCell>
        <mxCell id="KlxSWnceUSh5aOYCG6R3-4" value="" style="edgeStyle=none;curved=1;rounded=0;orthogonalLoop=1;jettySize=auto;html=1;fontSize=12;startSize=8;endSize=8;labelBackgroundColor=none;strokeColor=#DDA15E;fontColor=default;" edge="1" parent="1" source="KlxSWnceUSh5aOYCG6R3-2" target="KlxSWnceUSh5aOYCG6R3-3">
          <mxGeometry relative="1" as="geometry" />
        </mxCell>
        <mxCell id="KlxSWnceUSh5aOYCG6R3-12" value="" style="edgeStyle=none;curved=1;rounded=0;orthogonalLoop=1;jettySize=auto;html=1;fontSize=12;startSize=8;endSize=8;labelBackgroundColor=none;strokeColor=#DDA15E;fontColor=default;" edge="1" parent="1" source="KlxSWnceUSh5aOYCG6R3-2" target="KlxSWnceUSh5aOYCG6R3-11">
          <mxGeometry relative="1" as="geometry" />
        </mxCell>
        <mxCell id="KlxSWnceUSh5aOYCG6R3-2" value="ADMIN" style="rounded=0;whiteSpace=wrap;html=1;labelBackgroundColor=none;fillColor=#BC6C25;strokeColor=#DDA15E;fontColor=#FEFAE0;" vertex="1" parent="1">
          <mxGeometry x="150" y="155" width="250" height="70" as="geometry" />
        </mxCell>
        <mxCell id="KlxSWnceUSh5aOYCG6R3-6" value="" style="edgeStyle=none;curved=1;rounded=0;orthogonalLoop=1;jettySize=auto;html=1;fontSize=12;startSize=8;endSize=8;labelBackgroundColor=none;strokeColor=#DDA15E;fontColor=default;" edge="1" parent="1" source="KlxSWnceUSh5aOYCG6R3-3" target="KlxSWnceUSh5aOYCG6R3-5">
          <mxGeometry relative="1" as="geometry" />
        </mxCell>
        <mxCell id="KlxSWnceUSh5aOYCG6R3-3" value="Login to System" style="ellipse;whiteSpace=wrap;html=1;rounded=0;labelBackgroundColor=none;fillColor=#BC6C25;strokeColor=#DDA15E;fontColor=#FEFAE0;" vertex="1" parent="1">
          <mxGeometry x="610" y="135" width="130" height="115" as="geometry" />
        </mxCell>
        <mxCell id="KlxSWnceUSh5aOYCG6R3-8" value="" style="edgeStyle=none;curved=1;rounded=0;orthogonalLoop=1;jettySize=auto;html=1;fontSize=12;startSize=8;endSize=8;labelBackgroundColor=none;strokeColor=#DDA15E;fontColor=default;" edge="1" parent="1" source="KlxSWnceUSh5aOYCG6R3-5" target="KlxSWnceUSh5aOYCG6R3-7">
          <mxGeometry relative="1" as="geometry" />
        </mxCell>
        <mxCell id="KlxSWnceUSh5aOYCG6R3-5" value="Check Credentials" style="ellipse;whiteSpace=wrap;html=1;rounded=0;labelBackgroundColor=none;fillColor=#BC6C25;strokeColor=#DDA15E;fontColor=#FEFAE0;" vertex="1" parent="1">
          <mxGeometry x="600" y="390" width="150" height="115" as="geometry" />
        </mxCell>
        <mxCell id="KlxSWnceUSh5aOYCG6R3-10" value="" style="edgeStyle=none;curved=1;rounded=0;orthogonalLoop=1;jettySize=auto;html=1;fontSize=12;startSize=8;endSize=8;labelBackgroundColor=none;strokeColor=#DDA15E;fontColor=default;" edge="1" parent="1" source="KlxSWnceUSh5aOYCG6R3-7" target="KlxSWnceUSh5aOYCG6R3-9">
          <mxGeometry relative="1" as="geometry" />
        </mxCell>
        <mxCell id="KlxSWnceUSh5aOYCG6R3-7" value="Check Roles of Access" style="ellipse;whiteSpace=wrap;html=1;rounded=0;labelBackgroundColor=none;fillColor=#BC6C25;strokeColor=#DDA15E;fontColor=#FEFAE0;" vertex="1" parent="1">
          <mxGeometry x="840" y="140" width="160" height="140" as="geometry" />
        </mxCell>
        <mxCell id="KlxSWnceUSh5aOYCG6R3-22" value="" style="edgeStyle=none;curved=1;rounded=0;orthogonalLoop=1;jettySize=auto;html=1;fontSize=12;startSize=8;endSize=8;labelBackgroundColor=none;strokeColor=#DDA15E;fontColor=default;" edge="1" parent="1" source="KlxSWnceUSh5aOYCG6R3-9" target="KlxSWnceUSh5aOYCG6R3-21">
          <mxGeometry relative="1" as="geometry" />
        </mxCell>
        <mxCell id="KlxSWnceUSh5aOYCG6R3-24" value="" style="edgeStyle=none;curved=1;rounded=0;orthogonalLoop=1;jettySize=auto;html=1;fontSize=12;startSize=8;endSize=8;labelBackgroundColor=none;strokeColor=#DDA15E;fontColor=default;" edge="1" parent="1" source="KlxSWnceUSh5aOYCG6R3-9" target="KlxSWnceUSh5aOYCG6R3-23">
          <mxGeometry relative="1" as="geometry" />
        </mxCell>
        <mxCell id="KlxSWnceUSh5aOYCG6R3-26" value="" style="edgeStyle=none;curved=1;rounded=0;orthogonalLoop=1;jettySize=auto;html=1;fontSize=12;startSize=8;endSize=8;labelBackgroundColor=none;strokeColor=#DDA15E;fontColor=default;" edge="1" parent="1" source="KlxSWnceUSh5aOYCG6R3-9" target="KlxSWnceUSh5aOYCG6R3-25">
          <mxGeometry relative="1" as="geometry" />
        </mxCell>
        <mxCell id="KlxSWnceUSh5aOYCG6R3-28" value="" style="edgeStyle=none;curved=1;rounded=0;orthogonalLoop=1;jettySize=auto;html=1;fontSize=12;startSize=8;endSize=8;labelBackgroundColor=none;strokeColor=#DDA15E;fontColor=default;" edge="1" parent="1" source="KlxSWnceUSh5aOYCG6R3-9" target="KlxSWnceUSh5aOYCG6R3-27">
          <mxGeometry relative="1" as="geometry" />
        </mxCell>
        <mxCell id="KlxSWnceUSh5aOYCG6R3-30" value="" style="edgeStyle=none;curved=1;rounded=0;orthogonalLoop=1;jettySize=auto;html=1;fontSize=12;startSize=8;endSize=8;labelBackgroundColor=none;strokeColor=#DDA15E;fontColor=default;" edge="1" parent="1" source="KlxSWnceUSh5aOYCG6R3-9" target="KlxSWnceUSh5aOYCG6R3-29">
          <mxGeometry relative="1" as="geometry" />
        </mxCell>
        <mxCell id="KlxSWnceUSh5aOYCG6R3-32" value="" style="edgeStyle=none;curved=1;rounded=0;orthogonalLoop=1;jettySize=auto;html=1;fontSize=12;startSize=8;endSize=8;labelBackgroundColor=none;strokeColor=#DDA15E;fontColor=default;" edge="1" parent="1" source="KlxSWnceUSh5aOYCG6R3-9" target="KlxSWnceUSh5aOYCG6R3-31">
          <mxGeometry relative="1" as="geometry" />
        </mxCell>
        <mxCell id="KlxSWnceUSh5aOYCG6R3-35" value="" style="edgeStyle=none;curved=1;rounded=0;orthogonalLoop=1;jettySize=auto;html=1;fontSize=12;startSize=8;endSize=8;labelBackgroundColor=none;strokeColor=#DDA15E;fontColor=default;" edge="1" parent="1" source="KlxSWnceUSh5aOYCG6R3-9" target="KlxSWnceUSh5aOYCG6R3-34">
          <mxGeometry relative="1" as="geometry" />
        </mxCell>
        <mxCell id="KlxSWnceUSh5aOYCG6R3-37" value="" style="edgeStyle=none;curved=1;rounded=0;orthogonalLoop=1;jettySize=auto;html=1;fontSize=12;startSize=8;endSize=8;labelBackgroundColor=none;strokeColor=#DDA15E;fontColor=default;" edge="1" parent="1" source="KlxSWnceUSh5aOYCG6R3-9" target="KlxSWnceUSh5aOYCG6R3-36">
          <mxGeometry relative="1" as="geometry" />
        </mxCell>
        <mxCell id="KlxSWnceUSh5aOYCG6R3-39" value="" style="edgeStyle=none;curved=1;rounded=0;orthogonalLoop=1;jettySize=auto;html=1;fontSize=12;startSize=8;endSize=8;labelBackgroundColor=none;strokeColor=#DDA15E;fontColor=default;" edge="1" parent="1" source="KlxSWnceUSh5aOYCG6R3-9" target="KlxSWnceUSh5aOYCG6R3-38">
          <mxGeometry relative="1" as="geometry" />
        </mxCell>
        <mxCell id="KlxSWnceUSh5aOYCG6R3-42" value="" style="edgeStyle=none;curved=1;rounded=0;orthogonalLoop=1;jettySize=auto;html=1;fontSize=12;startSize=8;endSize=8;labelBackgroundColor=none;strokeColor=#DDA15E;fontColor=default;" edge="1" parent="1" source="KlxSWnceUSh5aOYCG6R3-9" target="KlxSWnceUSh5aOYCG6R3-41">
          <mxGeometry relative="1" as="geometry" />
        </mxCell>
        <mxCell id="KlxSWnceUSh5aOYCG6R3-9" value="Manage Modules" style="ellipse;whiteSpace=wrap;html=1;rounded=0;labelBackgroundColor=none;fillColor=#BC6C25;strokeColor=#DDA15E;fontColor=#FEFAE0;" vertex="1" parent="1">
          <mxGeometry x="860" y="360" width="120" height="100" as="geometry" />
        </mxCell>
        <mxCell id="KlxSWnceUSh5aOYCG6R3-14" value="" style="edgeStyle=none;curved=1;rounded=0;orthogonalLoop=1;jettySize=auto;html=1;fontSize=12;startSize=8;endSize=8;labelBackgroundColor=none;strokeColor=#DDA15E;fontColor=default;" edge="1" parent="1" source="KlxSWnceUSh5aOYCG6R3-11" target="KlxSWnceUSh5aOYCG6R3-13">
          <mxGeometry relative="1" as="geometry" />
        </mxCell>
        <mxCell id="KlxSWnceUSh5aOYCG6R3-11" value="Forgot Password" style="ellipse;whiteSpace=wrap;html=1;rounded=0;labelBackgroundColor=none;fillColor=#BC6C25;strokeColor=#DDA15E;fontColor=#FEFAE0;" vertex="1" parent="1">
          <mxGeometry x="200" y="360" width="150" height="140" as="geometry" />
        </mxCell>
        <mxCell id="KlxSWnceUSh5aOYCG6R3-13" value="Send Email to User" style="ellipse;whiteSpace=wrap;html=1;rounded=0;labelBackgroundColor=none;fillColor=#BC6C25;strokeColor=#DDA15E;fontColor=#FEFAE0;" vertex="1" parent="1">
          <mxGeometry x="190" y="550" width="170" height="140" as="geometry" />
        </mxCell>
        <mxCell id="KlxSWnceUSh5aOYCG6R3-21" value="Manage System Admins" style="rounded=0;whiteSpace=wrap;html=1;labelBackgroundColor=none;fillColor=#BC6C25;strokeColor=#DDA15E;fontColor=#FEFAE0;" vertex="1" parent="1">
          <mxGeometry x="310" y="690" width="210" height="60" as="geometry" />
        </mxCell>
        <mxCell id="KlxSWnceUSh5aOYCG6R3-23" value="Manage Roles of User" style="rounded=0;whiteSpace=wrap;html=1;labelBackgroundColor=none;fillColor=#BC6C25;strokeColor=#DDA15E;fontColor=#FEFAE0;" vertex="1" parent="1">
          <mxGeometry x="560" y="690" width="200" height="60" as="geometry" />
        </mxCell>
        <mxCell id="KlxSWnceUSh5aOYCG6R3-25" value="Manage User Permission" style="rounded=0;whiteSpace=wrap;html=1;labelBackgroundColor=none;fillColor=#BC6C25;strokeColor=#DDA15E;fontColor=#FEFAE0;" vertex="1" parent="1">
          <mxGeometry x="780" y="690" width="340" height="60" as="geometry" />
        </mxCell>
        <mxCell id="KlxSWnceUSh5aOYCG6R3-27" value="Manage Report" style="rounded=0;whiteSpace=wrap;html=1;labelBackgroundColor=none;fillColor=#BC6C25;strokeColor=#DDA15E;fontColor=#FEFAE0;" vertex="1" parent="1">
          <mxGeometry x="1160" y="670" width="420" height="60" as="geometry" />
        </mxCell>
        <mxCell id="KlxSWnceUSh5aOYCG6R3-29" value="Manage Teacher Profiles" style="whiteSpace=wrap;html=1;rounded=0;labelBackgroundColor=none;fillColor=#BC6C25;strokeColor=#DDA15E;fontColor=#FEFAE0;" vertex="1" parent="1">
          <mxGeometry x="1160" y="570" width="420" height="60" as="geometry" />
        </mxCell>
        <mxCell id="KlxSWnceUSh5aOYCG6R3-31" value="Manage Fees Details" style="whiteSpace=wrap;html=1;rounded=0;labelBackgroundColor=none;fillColor=#BC6C25;strokeColor=#DDA15E;fontColor=#FEFAE0;" vertex="1" parent="1">
          <mxGeometry x="1160" y="480" width="420" height="60" as="geometry" />
        </mxCell>
        <mxCell id="KlxSWnceUSh5aOYCG6R3-34" value="Manage Time Table Details" style="whiteSpace=wrap;html=1;rounded=0;labelBackgroundColor=none;fillColor=#BC6C25;strokeColor=#DDA15E;fontColor=#FEFAE0;" vertex="1" parent="1">
          <mxGeometry x="1170" y="40" width="410" height="70" as="geometry" />
        </mxCell>
        <mxCell id="KlxSWnceUSh5aOYCG6R3-36" value="Manage Class Details" style="whiteSpace=wrap;html=1;rounded=0;labelBackgroundColor=none;fillColor=#BC6C25;strokeColor=#DDA15E;fontColor=#FEFAE0;" vertex="1" parent="1">
          <mxGeometry x="1160" y="150" width="420" height="60" as="geometry" />
        </mxCell>
        <mxCell id="KlxSWnceUSh5aOYCG6R3-38" value="Manage Student Details" style="whiteSpace=wrap;html=1;rounded=0;labelBackgroundColor=none;fillColor=#BC6C25;strokeColor=#DDA15E;fontColor=#FEFAE0;" vertex="1" parent="1">
          <mxGeometry x="1160" y="260" width="420" height="60" as="geometry" />
        </mxCell>
        <mxCell id="KlxSWnceUSh5aOYCG6R3-41" value="Manage Attendence Details" style="whiteSpace=wrap;html=1;rounded=0;labelBackgroundColor=none;fillColor=#BC6C25;strokeColor=#DDA15E;fontColor=#FEFAE0;" vertex="1" parent="1">
          <mxGeometry x="1160" y="370" width="420" height="60" as="geometry" />
        </mxCell>
      </root>
    </mxGraphModel>
  </diagram>
</mxfile>
